<mxfile host="Electron" agent="Mozilla/5.0 (Windows NT 10.0; Win64; x64) AppleWebKit/537.36 (KHTML, like Gecko) draw.io/25.0.1 Chrome/128.0.6613.186 Electron/32.2.6 Safari/537.36" version="25.0.1">
  <diagram name="PÃ¡gina-1" id="VgTva2kcMsFS5TFj5gKX">
    <mxGraphModel dx="1434" dy="836" grid="1" gridSize="10" guides="1" tooltips="1" connect="1" arrows="1" fold="1" page="1" pageScale="1" pageWidth="827" pageHeight="1169" math="0" shadow="0">
      <root>
        <mxCell id="0" />
        <mxCell id="1" parent="0" />
        <mxCell id="Rl1Bu83Cg5yStU1Ld5Uz-1" value="Cliente" style="swimlane;whiteSpace=wrap;html=1;" vertex="1" parent="1">
          <mxGeometry x="110" y="30" width="200" height="110" as="geometry" />
        </mxCell>
        <mxCell id="Rl1Bu83Cg5yStU1Ld5Uz-2" value="string nombre" style="whiteSpace=wrap;html=1;" vertex="1" parent="Rl1Bu83Cg5yStU1Ld5Uz-1">
          <mxGeometry y="20" width="200" height="30" as="geometry" />
        </mxCell>
        <mxCell id="Rl1Bu83Cg5yStU1Ld5Uz-3" value="string apellido" style="whiteSpace=wrap;html=1;" vertex="1" parent="Rl1Bu83Cg5yStU1Ld5Uz-1">
          <mxGeometry y="50" width="200" height="30" as="geometry" />
        </mxCell>
        <mxCell id="Rl1Bu83Cg5yStU1Ld5Uz-4" value="string numeroContacto" style="whiteSpace=wrap;html=1;" vertex="1" parent="Rl1Bu83Cg5yStU1Ld5Uz-1">
          <mxGeometry y="80" width="200" height="30" as="geometry" />
        </mxCell>
        <mxCell id="Rl1Bu83Cg5yStU1Ld5Uz-6" value="Vehiculo" style="swimlane;whiteSpace=wrap;html=1;" vertex="1" parent="1">
          <mxGeometry x="110" y="290" width="200" height="110" as="geometry" />
        </mxCell>
        <mxCell id="Rl1Bu83Cg5yStU1Ld5Uz-7" value="string marca" style="whiteSpace=wrap;html=1;" vertex="1" parent="Rl1Bu83Cg5yStU1Ld5Uz-6">
          <mxGeometry y="20" width="200" height="30" as="geometry" />
        </mxCell>
        <mxCell id="Rl1Bu83Cg5yStU1Ld5Uz-8" value="string modelo" style="whiteSpace=wrap;html=1;" vertex="1" parent="Rl1Bu83Cg5yStU1Ld5Uz-6">
          <mxGeometry y="50" width="200" height="30" as="geometry" />
        </mxCell>
        <mxCell id="Rl1Bu83Cg5yStU1Ld5Uz-9" value="string matricula" style="whiteSpace=wrap;html=1;" vertex="1" parent="Rl1Bu83Cg5yStU1Ld5Uz-6">
          <mxGeometry y="80" width="200" height="30" as="geometry" />
        </mxCell>
        <mxCell id="Rl1Bu83Cg5yStU1Ld5Uz-10" value="Reparacion" style="swimlane;whiteSpace=wrap;html=1;" vertex="1" parent="1">
          <mxGeometry x="314" y="510" width="200" height="80" as="geometry" />
        </mxCell>
        <mxCell id="Rl1Bu83Cg5yStU1Ld5Uz-11" value="date fecha" style="whiteSpace=wrap;html=1;" vertex="1" parent="Rl1Bu83Cg5yStU1Ld5Uz-10">
          <mxGeometry y="20" width="200" height="30" as="geometry" />
        </mxCell>
        <mxCell id="Rl1Bu83Cg5yStU1Ld5Uz-12" value="string detalle" style="whiteSpace=wrap;html=1;" vertex="1" parent="Rl1Bu83Cg5yStU1Ld5Uz-10">
          <mxGeometry y="50" width="200" height="30" as="geometry" />
        </mxCell>
        <mxCell id="Rl1Bu83Cg5yStU1Ld5Uz-14" value="Mecanico" style="swimlane;whiteSpace=wrap;html=1;" vertex="1" parent="1">
          <mxGeometry x="500" y="290" width="200" height="80" as="geometry" />
        </mxCell>
        <mxCell id="Rl1Bu83Cg5yStU1Ld5Uz-15" value="string nombre" style="whiteSpace=wrap;html=1;" vertex="1" parent="Rl1Bu83Cg5yStU1Ld5Uz-14">
          <mxGeometry y="20" width="200" height="30" as="geometry" />
        </mxCell>
        <mxCell id="Rl1Bu83Cg5yStU1Ld5Uz-16" value="string apellido" style="whiteSpace=wrap;html=1;" vertex="1" parent="Rl1Bu83Cg5yStU1Ld5Uz-14">
          <mxGeometry y="50" width="200" height="30" as="geometry" />
        </mxCell>
        <mxCell id="Rl1Bu83Cg5yStU1Ld5Uz-18" value="" style="endArrow=classic;html=1;rounded=0;exitX=0.5;exitY=1;exitDx=0;exitDy=0;entryX=0.5;entryY=0;entryDx=0;entryDy=0;" edge="1" parent="1" source="Rl1Bu83Cg5yStU1Ld5Uz-4" target="Rl1Bu83Cg5yStU1Ld5Uz-6">
          <mxGeometry width="50" height="50" relative="1" as="geometry">
            <mxPoint x="390" y="350" as="sourcePoint" />
            <mxPoint x="440" y="300" as="targetPoint" />
          </mxGeometry>
        </mxCell>
        <mxCell id="Rl1Bu83Cg5yStU1Ld5Uz-19" value="" style="endArrow=classic;html=1;rounded=0;exitX=1;exitY=1;exitDx=0;exitDy=0;entryX=0.25;entryY=0;entryDx=0;entryDy=0;" edge="1" parent="1" source="Rl1Bu83Cg5yStU1Ld5Uz-9" target="Rl1Bu83Cg5yStU1Ld5Uz-10">
          <mxGeometry width="50" height="50" relative="1" as="geometry">
            <mxPoint x="390" y="350" as="sourcePoint" />
            <mxPoint x="440" y="300" as="targetPoint" />
          </mxGeometry>
        </mxCell>
        <mxCell id="Rl1Bu83Cg5yStU1Ld5Uz-20" value="" style="endArrow=classic;html=1;rounded=0;exitX=0;exitY=1;exitDx=0;exitDy=0;entryX=0.75;entryY=0;entryDx=0;entryDy=0;" edge="1" parent="1" source="Rl1Bu83Cg5yStU1Ld5Uz-16" target="Rl1Bu83Cg5yStU1Ld5Uz-10">
          <mxGeometry width="50" height="50" relative="1" as="geometry">
            <mxPoint x="390" y="350" as="sourcePoint" />
            <mxPoint x="440" y="300" as="targetPoint" />
          </mxGeometry>
        </mxCell>
        <mxCell id="Rl1Bu83Cg5yStU1Ld5Uz-21" value="1:N" style="text;html=1;align=center;verticalAlign=middle;resizable=0;points=[];autosize=1;strokeColor=none;fillColor=none;" vertex="1" parent="1">
          <mxGeometry x="210" y="190" width="40" height="30" as="geometry" />
        </mxCell>
        <mxCell id="Rl1Bu83Cg5yStU1Ld5Uz-22" value="1:N" style="text;html=1;align=center;verticalAlign=middle;resizable=0;points=[];autosize=1;strokeColor=none;fillColor=none;" vertex="1" parent="1">
          <mxGeometry x="330" y="430" width="40" height="30" as="geometry" />
        </mxCell>
        <mxCell id="Rl1Bu83Cg5yStU1Ld5Uz-23" value="1:N" style="text;html=1;align=center;verticalAlign=middle;resizable=0;points=[];autosize=1;strokeColor=none;fillColor=none;" vertex="1" parent="1">
          <mxGeometry x="440" y="430" width="40" height="30" as="geometry" />
        </mxCell>
        <mxCell id="Rl1Bu83Cg5yStU1Ld5Uz-24" value="" style="endArrow=classic;html=1;rounded=0;exitX=0.25;exitY=0;exitDx=0;exitDy=0;entryX=1;entryY=1;entryDx=0;entryDy=0;" edge="1" parent="1" source="Rl1Bu83Cg5yStU1Ld5Uz-14" target="Rl1Bu83Cg5yStU1Ld5Uz-1">
          <mxGeometry width="50" height="50" relative="1" as="geometry">
            <mxPoint x="220" y="150" as="sourcePoint" />
            <mxPoint x="220" y="300" as="targetPoint" />
          </mxGeometry>
        </mxCell>
        <mxCell id="Rl1Bu83Cg5yStU1Ld5Uz-25" value="1:1" style="text;html=1;align=center;verticalAlign=middle;resizable=0;points=[];autosize=1;strokeColor=none;fillColor=none;" vertex="1" parent="1">
          <mxGeometry x="430" y="178" width="40" height="30" as="geometry" />
        </mxCell>
      </root>
    </mxGraphModel>
  </diagram>
</mxfile>
